<?xml version="1.0" encoding="utf-8"?>
<!-- Generator: Adobe Illustrator 22.1.0, SVG Export Plug-In . SVG Version: 6.00 Build 0)  -->
<svg version="1.1" id="Layer_1" xmlns="http://www.w3.org/2000/svg" xmlns:xlink="http://www.w3.org/1999/xlink" x="0px" y="0px"
	 viewBox="0 0 420 119" style="enable-background:new 0 0 420 119;" xml:space="preserve">
<style type="text/css">
	.st0{fill:#FFFFFF;}
</style>
<g>
	<g>
		<path class="st0" d="M45.1,94c0,0,111.7-162.4,63.8-1.5c0,0-0.5,1.8-1.5,4.3c-1.6,4-5.5,10.5-6.3,9.7c-0.4-0.4,0.4-2.7,0.7-4
			C101.7,102.5,147.6-49.8,45.1,94z"/>
		<path class="st0" d="M10,89.7c0,0,111.7-162.4,63.8-1.5c0,0-0.5,1.8-1.5,4.3c-1.6,4-5.5,10.5-6.3,9.7c-0.4-0.4,0.4-2.7,0.7-4
			C66.6,98.2,112.5-54.1,10,89.7z"/>
	</g>
	<g>
		<path class="st0" d="M161.9,38.3h5.1c3.3,0,5.3,0.6,6,1.8s0.6,3-0.3,5.2l-7.1,17.4h-7.4l6.1-15c0.5-1.3,0.6-2.3,0.3-3
			c-0.3-0.6-1.4-0.9-3.4-0.9H159l-7.6,18.9h-7.5l7.6-18.9h-2.1c-1.8,0-3.1,0.3-4,1s-1.6,1.6-2.1,2.9l-6.1,15h-7.4l7-17.4
			c1-2.1,2.1-3.7,3.5-4.7c1.3-1,2.5-1.6,3.8-1.9c1.4-0.3,2.8-0.5,4.3-0.5h13.5V38.3z"/>
		<path class="st0" d="M169,62.8l9.9-24.5h19.3c1.6,0,2.9,0.2,3.9,0.4c1,0.3,1.7,0.7,2.1,1.3c0.4,0.6,0.6,1.3,0.6,2.2
			c-0.1,0.9-0.3,1.9-0.8,3.1l-4.2,10.4c-0.5,1.2-1,2.2-1.7,3.1c-0.6,0.9-1.4,1.6-2.3,2.2c-0.9,0.6-2,1-3.2,1.3s-2.7,0.4-4.3,0.4H169
			V62.8z M184,43.9l-5.4,13.3h8.7c1.8,0,3.1-0.3,4-1s1.6-1.6,2.1-2.9l2.2-5.6c0.5-1.3,0.6-2.2,0.2-2.9c-0.3-0.7-1.4-1-3.2-1H184
			V43.9z"/>
		<path class="st0" d="M213.8,47.7l-2.3,5.6c-0.5,1.3-0.6,2.3-0.2,3c0.3,0.7,1.4,1,3.2,1h16.1l-2.2,5.6H209c-1.6,0-2.9-0.1-3.9-0.4
			c-1-0.3-1.7-0.7-2.2-1.3c-0.4-0.6-0.6-1.3-0.6-2.2c0.1-0.9,0.3-1.9,0.8-3.1l4.2-10.4c0.5-1.2,1-2.2,1.7-3.1
			c0.6-0.9,1.4-1.6,2.3-2.2c0.9-0.6,2-1,3.2-1.3s2.7-0.4,4.3-0.4h19.4l-2.2,5.6h-16.1c-1.8,0-3.1,0.3-4,1
			C215,45.5,214.3,46.5,213.8,47.7z"/>
		<path class="st0" d="M244.9,53.2h-2.1c-0.5,1.3-0.6,2.3-0.2,3c0.4,0.7,1.4,1,3.2,1h16.1l-2.2,5.6h-19.4c-1.6,0-2.9-0.1-3.9-0.4
			c-1-0.3-1.7-0.7-2.2-1.3c-0.4-0.6-0.6-1.3-0.6-2.2c0.1-0.9,0.3-1.9,0.8-3.1l4.2-10.4c0.5-1.2,1-2.2,1.7-3.1
			c0.6-0.9,1.4-1.6,2.3-2.2c0.9-0.6,2-1,3.2-1.3s2.7-0.4,4.3-0.4h19.4l-2.2,5.6h-16.1c-1.8,0-3.1,0.3-4,1s-1.6,1.6-2.1,2.8h20.7
			l-2.3,5.6h-18.6V53.2z"/>
		<path class="st0" d="M298.1,45.3L291,62.8h-7.4l6.1-15c0.5-1.3,0.6-2.3,0.3-3c-0.3-0.6-1.4-0.9-3.4-0.9h-4.1c-1.8,0-3.1,0.3-4,1
			s-1.6,1.6-2.1,2.9l-6.1,15h-7.4l7.1-17.4c0.9-2.2,2.4-4,4.4-5.2s4.4-1.9,7.1-1.9h10.8c3.3,0,5.3,0.6,6,1.8
			C299.1,41.3,299,43.1,298.1,45.3z"/>
		<path class="st0" d="M301.9,43.9l2.2-5.6h28l-2.2,5.6h-10.6l-7.6,18.9h-7.3l7.6-18.9H301.9z"/>
		<path class="st0" d="M354,62.8h-8.3l-4.8-8.4h-4.6l-3.4,8.4h-7.3l9.9-24.5H355c3.3,0,5.3,0.6,6,1.8s0.6,3-0.3,5.2l-0.8,1.9
			c-0.9,2.3-2.2,4-3.9,5.2c-1.7,1.2-3.6,1.8-5.7,1.8h-1.1L354,62.8z M347.3,48.8c2,0,3.3-0.3,4.1-0.9c0.8-0.6,1.3-1.1,1.5-1.5
			c0.1-0.4,0-0.9-0.2-1.5c-0.3-0.6-1.4-0.9-3.4-0.9h-8.7l-2,4.9L347.3,48.8L347.3,48.8z"/>
		<path class="st0" d="M364.3,62.8H357l9.9-24.5h7.3L364.3,62.8z"/>
		<path class="st0" d="M381.1,47.7l-2.3,5.6c-0.5,1.3-0.6,2.3-0.2,3c0.3,0.7,1.4,1,3.2,1h16.1l-2.2,5.6h-19.4
			c-1.6,0-2.9-0.1-3.9-0.4c-1-0.3-1.7-0.7-2.2-1.3c-0.4-0.6-0.6-1.3-0.6-2.2c0.1-0.9,0.3-1.9,0.8-3.1l4.2-10.4
			c0.5-1.2,1-2.2,1.7-3.1c0.6-0.9,1.4-1.6,2.3-2.2c0.9-0.6,2-1,3.2-1.3s2.6-0.4,4.3-0.4h19.4l-2.2,5.6h-16.1c-1.8,0-3.1,0.3-4,1
			C382.2,45.5,381.5,46.5,381.1,47.7z"/>
		<path class="st0" d="M163.8,75.2h-6.2v-2h14.8v2h-6.2v15.9h-2.4L163.8,75.2L163.8,75.2z"/>
		<path class="st0" d="M187.2,82.8h-7.8v6.4h8.7v2H177V73.3h10.6v2h-8.2v5.6h7.8L187.2,82.8L187.2,82.8z"/>
		<path class="st0" d="M208,90.5c-0.9,0.5-2.9,1-5.4,1c-5.6,0-9.8-3.3-9.8-9.1c0-5.1,3.9-9.4,10.4-9.4c2.6,0,4.2,0.6,4.9,0.9
			l-0.6,1.9c-1-0.5-2.5-0.9-4.2-0.9c-5,0-7.9,3-7.9,7.4c0,4,2.7,7.1,7.7,7.1c1.6,0,3.3-0.3,4.4-0.9L208,90.5z"/>
		<path class="st0" d="M216.2,73.3v7.4h9.9v-7.4h2.4v17.9h-2.4v-8.4h-9.9v8.4h-2.4V73.3H216.2z"/>
		<path class="st0" d="M235.5,91.2V73.3h2.7l6.6,9.3c1.5,2.2,2.6,3.9,3.5,5.7h0.1c-0.2-2.3-0.3-4.4-0.3-7.1v-7.9h2.3v17.9h-2.5
			l-6.5-9.2c-1.4-2.1-2.8-4.1-3.7-6h-0.1c0.1,2.2,0.2,4.4,0.2,7v8.1L235.5,91.2L235.5,91.2z"/>
		<path class="st0" d="M265.2,91.5c-5.3,0-9.1-3.9-9.1-9.1c0-5.6,4-9.5,9.3-9.5c5.5,0,9.1,3.9,9.1,9.1
			C274.6,88,270.4,91.5,265.2,91.5L265.2,91.5z M265.4,89.6c4.1,0,6.7-3.2,6.7-7.4c0-3.6-2.3-7.3-6.6-7.3c-4.4,0-6.7,3.5-6.7,7.5
			C258.7,86.3,261.2,89.6,265.4,89.6L265.4,89.6z"/>
		<path class="st0" d="M280.4,73.3h2.4v15.9h8.5v2h-10.9V73.3z"/>
		<path class="st0" d="M303.7,91.5c-5.3,0-9.1-3.9-9.1-9.1c0-5.6,4-9.5,9.3-9.5c5.5,0,9.1,3.9,9.1,9.1C313,88,308.8,91.5,303.7,91.5
			L303.7,91.5z M303.8,89.6c4.1,0,6.7-3.2,6.7-7.4c0-3.6-2.3-7.3-6.6-7.3c-4.4,0-6.7,3.5-6.7,7.5C297.2,86.3,299.7,89.6,303.8,89.6
			L303.8,89.6z"/>
		<path class="st0" d="M334.1,90.3c-1.1,0.4-3.4,1.1-6.3,1.1c-3.1,0-5.6-0.8-7.5-2.6c-1.6-1.5-2.6-3.9-2.6-6.5
			c0-4.8,3.7-9.2,10.7-9.2c2.4,0,4.3,0.5,5.1,0.9l-0.6,1.9c-1.1-0.5-2.5-0.9-4.6-0.9c-5,0-8,3-8,7.1c0,4.2,2.9,7.2,7.8,7.2
			c1.8,0,3-0.2,3.7-0.6v-5.2h-4.1v-1.9h6.5v8.7H334.1z"/>
		<path class="st0" d="M343,73.3v17.9h-2.4V73.3H343z"/>
		<path class="st0" d="M360.1,82.8h-7.8v6.4h8.7v2h-11.1V73.3h10.6v2h-8.2v5.6h7.8V82.8z"/>
		<path class="st0" d="M366.6,88.2c1.2,0.7,2.8,1.3,4.7,1.3c2.5,0,4-1.2,4-3.1c0-1.7-1-2.6-3.7-3.5c-3.5-1.1-5.2-2.6-5.2-5.1
			c0-2.8,2.5-4.9,6.2-4.9c2.1,0,3.5,0.5,4.4,1l-0.7,1.9c-0.6-0.3-2-0.9-3.8-0.9c-2.7,0-3.7,1.5-3.7,2.7c0,1.6,1.1,2.5,3.9,3.4
			c3.3,1.1,5,2.5,5,5.3c0,2.7-2,5.2-6.7,5.2c-1.9,0-4-0.6-5.1-1.3L366.6,88.2z"/>
	</g>
</g>
</svg>
